<?xml version="1.0" encoding="UTF-8" standalone="no"?>
<!DOCTYPE svg PUBLIC "-//W3C//DTD SVG 1.1//EN" "http://www.w3.org/Graphics/SVG/1.1/DTD/svg11.dtd">
<svg xmlns="http://www.w3.org/2000/svg" version="1.1" viewBox="0.00 0.00 589.00 589.00">
<g stroke-width="2.00" fill="none" stroke-linecap="butt">
<path stroke="#8f9ba1" vector-effect="non-scaling-stroke" d="
  M 179.18 37.41
  Q 121.66 63.30 80.99 111.47
  C 73.12 120.79 65.45 131.93 58.73 142.30
  Q 31.79 183.93 21.65 232.44
  C 19.02 245.02 17.61 257.44 17.27 269.97
  C 17.15 274.26 20.29 278.86 25.01 278.78
  Q 35.11 278.62 44.34 278.78
  C 51.71 278.91 55.42 273.89 55.45 266.97
  Q 55.51 252.28 59.81 235.47
  C 68.81 200.26 85.26 166.71 108.51 139.14
  Q 124.60 120.05 138.30 108.03
  Q 165.08 84.52 201.37 69.58
  C 221.96 61.11 243.84 54.65 266.43 52.99
  C 271.70 52.61 275.88 49.54 275.86 43.84
  Q 275.82 32.60 275.97 21.10
  C 276.02 16.47 271.55 13.59 267.25 13.97
  Q 222.26 18.03 179.18 37.41"
/>
<path stroke="#8f9ba1" vector-effect="non-scaling-stroke" d="
  M 344.98 56.76
  C 372.93 63.10 400.46 74.64 423.93 90.02
  C 440.50 100.87 457.16 114.69 470.94 129.70
  Q 515.27 178.02 529.43 243.08
  Q 532.07 255.18 532.59 268.58
  C 532.75 272.64 534.11 275.61 537.66 277.69
  Q 539.63 278.84 541.97 278.78
  Q 552.09 278.54 562.12 278.62
  C 567.80 278.67 571.35 273.33 571.00 267.97
  Q 568.85 234.92 558.52 204.57
  Q 532.19 127.20 469.46 76.02
  Q 462.55 70.38 453.56 64.01
  C 421.64 41.41 386.08 25.78 347.58 17.83
  Q 336.36 15.52 322.42 14.26
  Q 319.80 14.02 317.37 14.35
  C 314.22 14.78 311.45 17.83 311.47 21.21
  Q 311.54 33.10 311.47 44.47
  C 311.44 49.52 316.89 52.99 321.34 53.30
  Q 333.55 54.16 344.98 56.76"
/>
<path stroke="#8f9ba1" vector-effect="non-scaling-stroke" d="
  M 120.32 213.28
  Q 142.20 167.83 182.41 137.93
  Q 214.94 113.74 254.89 105.21
  Q 260.27 104.07 265.75 103.53
  Q 269.11 103.20 270.96 102.17
  C 273.41 100.81 276.07 97.82 276.05 94.68
  Q 276.00 86.01 276.02 78.23
  C 276.03 73.41 270.85 70.58 266.60 70.97
  Q 255.25 72.01 245.05 74.25
  C 208.36 82.29 173.33 99.44 145.87 124.88
  C 122.01 146.99 103.12 172.47 90.16 201.39
  Q 84.10 214.89 81.38 224.25
  Q 76.80 239.95 75.50 245.93
  Q 73.40 255.57 72.79 268.54
  Q 72.65 271.39 73.47 273.51
  C 74.53 276.25 77.04 278.82 80.16 278.79
  Q 88.60 278.71 96.56 278.77
  C 102.79 278.81 105.27 274.21 105.65 268.46
  Q 106.27 259.14 106.83 256.11
  C 109.50 241.54 113.93 226.56 120.32 213.28"
/>
<path stroke="#8f9ba1" vector-effect="non-scaling-stroke" d="
  M 376.16 120.67
  Q 397.69 131.66 413.38 144.36
  C 451.25 175.02 478.33 220.79 482.04 269.85
  Q 482.43 275.03 486.28 277.64
  Q 488.35 279.05 493.38 278.84
  Q 498.88 278.61 504.60 278.77
  C 510.69 278.94 515.93 275.90 515.43 269.07
  Q 514.15 251.68 509.91 235.99
  C 500.42 200.88 482.67 168.11 457.57 141.19
  C 427.38 108.84 390.63 86.71 348.36 75.48
  C 339.51 73.13 330.00 71.96 320.87 70.99
  C 316.16 70.49 311.29 73.59 311.44 78.62
  Q 311.65 85.58 311.23 93.18
  C 310.94 98.28 314.43 102.43 319.37 103.12
  Q 350.25 107.45 376.16 120.67"
/>
<path stroke="#8f9ba1" vector-effect="non-scaling-stroke" d="
  M 249.91 340.90
  Q 244.11 367.69 239.78 395.63
  Q 238.57 403.40 239.30 408.27
  C 241.36 421.94 249.99 434.46 262.11 441.83
  C 279.91 452.65 303.53 452.93 321.80 444.09
  C 340.33 435.12 352.39 415.88 348.67 394.77
  C 345.80 378.52 341.68 358.95 338.34 340.90
  Q 338.02 339.16 339.25 340.43
  C 357.26 358.97 383.85 365.21 407.49 354.28
  C 429.28 344.21 441.76 322.99 444.29 299.70
  C 447.11 273.68 440.85 247.97 429.52 224.06
  Q 421.02 206.12 407.93 190.94
  Q 392.17 172.65 374.72 161.58
  Q 356.18 149.81 337.49 143.56
  Q 326.34 139.84 317.84 138.45
  Q 285.76 133.23 256.85 141.85
  Q 186.80 162.74 156.29 228.48
  C 146.98 248.54 142.66 270.77 143.15 292.99
  Q 143.91 327.27 169.27 347.72
  Q 178.45 355.12 189.17 357.72
  C 212.39 363.35 231.79 356.49 249.32 340.56
  Q 250.15 339.80 249.91 340.90"
/>
<path stroke="#8f9ba1" vector-effect="non-scaling-stroke" d="
  M 137.27 525.09
  C 174.70 550.97 219.74 566.71 265.71 570.57
  Q 268.46 570.80 270.42 570.26
  C 273.50 569.41 276.05 566.24 276.02 562.88
  Q 275.93 552.84 276.08 541.99
  C 276.15 537.32 271.75 533.70 267.42 533.17
  C 222.98 527.79 180.96 511.41 146.22 483.74
  Q 99.50 446.53 74.10 390.67
  Q 60.33 360.40 55.46 325.75
  C 54.63 319.88 51.81 315.73 45.24 315.83
  Q 36.19 315.97 25.75 315.91
  C 20.43 315.87 16.57 319.54 17.15 325.15
  C 21.46 367.58 35.99 409.89 59.73 445.23
  C 77.00 470.93 96.99 494.70 121.44 513.52
  Q 129.32 519.59 137.27 525.09"
/>
<path stroke="#8f9ba1" vector-effect="non-scaling-stroke" d="
  M 207.05 462.50
  Q 151.75 432.71 123.16 376.91
  Q 113.51 358.08 107.28 331.90
  C 105.85 325.91 106.52 315.86 97.32 315.88
  Q 89.25 315.90 81.37 315.96
  C 77.92 315.98 74.92 317.49 73.51 320.74
  Q 72.54 322.98 73.26 327.44
  Q 74.95 337.73 76.91 345.46
  Q 87.96 388.95 113.87 424.30
  Q 124.43 438.72 135.60 450.26
  Q 161.57 477.09 194.31 493.63
  Q 202.18 497.61 212.65 501.64
  Q 223.91 505.98 231.83 508.32
  Q 246.21 512.58 265.20 515.26
  C 270.49 516.01 276.24 512.86 276.11 507.01
  Q 275.94 499.51 276.05 491.89
  C 276.12 487.00 272.89 483.48 268.19 482.75
  Q 247.21 479.50 225.35 471.00
  Q 216.28 467.48 207.05 462.50"
/>
<path stroke="#8f9ba1" vector-effect="non-scaling-stroke" d="
  M 497.59 383.20
  C 506.14 364.34 512.57 344.72 514.72 325.27
  C 515.44 318.74 510.56 315.48 504.44 315.74
  Q 497.48 316.02 490.82 316.01
  C 484.53 316.00 482.00 320.21 481.19 325.86
  Q 480.47 331.01 478.64 337.89
  Q 464.33 391.82 424.85 429.93
  Q 391.95 461.67 348.79 476.19
  Q 334.51 481.00 321.63 482.43
  C 316.00 483.06 311.40 485.49 311.50 491.64
  Q 311.61 498.34 311.50 504.83
  C 311.41 510.64 314.38 515.44 320.64 515.07
  Q 326.76 514.70 334.35 513.20
  Q 356.21 508.87 375.15 501.40
  C 386.75 496.82 398.44 490.63 409.03 484.27
  Q 424.60 474.91 438.15 462.68
  C 444.16 457.25 450.30 451.77 455.86 445.79
  Q 481.93 417.77 497.59 383.20"
/>
<path stroke="#8f9ba1" vector-effect="non-scaling-stroke" d="
  M 544.81 415.23
  C 556.82 389.88 564.98 363.36 569.48 335.50
  Q 570.24 330.80 570.53 325.99
  C 570.90 319.90 567.38 315.65 561.39 315.73
  Q 550.87 315.89 542.50 315.71
  C 536.68 315.58 532.46 318.88 531.91 324.81
  Q 530.28 342.25 526.02 356.68
  Q 515.34 392.86 495.34 423.78
  Q 468.27 465.61 426.84 493.73
  Q 378.50 526.53 319.17 533.17
  C 313.78 533.78 311.49 538.15 311.51 543.34
  Q 311.56 553.93 311.44 563.11
  Q 311.42 564.81 312.17 566.38
  C 314.36 570.92 319.25 570.85 323.51 570.37
  Q 339.37 568.57 355.65 565.17
  Q 372.95 561.56 397.01 552.27
  C 439.25 535.94 477.65 507.88 506.80 473.21
  Q 512.15 466.86 517.26 460.37
  Q 532.73 440.71 544.81 415.23"
/>
<path stroke="#8f9ba1" vector-effect="non-scaling-stroke" d="
  M 319.7614 194.4431
  A 24.50 24.16 7.3 0 0 298.5299 167.3658
  A 24.50 24.16 7.3 0 0 271.1586 188.2169
  A 24.50 24.16 7.3 0 0 292.3901 215.2942
  A 24.50 24.16 7.3 0 0 319.7614 194.4431"
/>
<path stroke="#8f9ba1" vector-effect="non-scaling-stroke" d="
  M 383.15 212.26
  A 17.54 17.54 0.0 0 0 365.61 194.72
  A 17.54 17.54 0.0 0 0 348.07 212.26
  A 17.54 17.54 0.0 0 0 365.61 229.80
  A 17.54 17.54 0.0 0 0 383.15 212.26"
/>
<path stroke="#8f9ba1" vector-effect="non-scaling-stroke" d="
  M 246.28 216.08
  A 20.91 20.91 0.0 0 0 225.37 195.17
  A 20.91 20.91 0.0 0 0 204.46 216.08
  A 20.91 20.91 0.0 0 0 225.37 236.99
  A 20.91 20.91 0.0 0 0 246.28 216.08"
/>
<path stroke="#8f9ba1" vector-effect="non-scaling-stroke" d="
  M 333.23 247.08
  A 14.30 14.30 0.0 0 0 318.93 232.78
  A 14.30 14.30 0.0 0 0 304.63 247.08
  A 14.30 14.30 0.0 0 0 318.93 261.38
  A 14.30 14.30 0.0 0 0 333.23 247.08"
/>
<path stroke="#8f9ba1" vector-effect="non-scaling-stroke" d="
  M 268.4831 269.6140
  A 15.18 14.85 83.9 0 0 281.6359 252.9420
  A 15.18 14.85 83.9 0 0 265.2569 239.4260
  A 15.18 14.85 83.9 0 0 252.1041 256.0980
  A 15.18 14.85 83.9 0 0 268.4831 269.6140"
/>
<path stroke="#8f9ba1" vector-effect="non-scaling-stroke" d="
  M 409.15 288.58
  A 34.92 34.92 0.0 0 0 374.23 253.66
  A 34.92 34.92 0.0 0 0 339.31 288.58
  A 34.92 34.92 0.0 0 0 374.23 323.50
  A 34.92 34.92 0.0 0 0 409.15 288.58"
/>
<path stroke="#8f9ba1" vector-effect="non-scaling-stroke" d="
  M 242.66 293.86
  A 30.96 30.96 0.0 0 0 211.70 262.90
  A 30.96 30.96 0.0 0 0 180.74 293.86
  A 30.96 30.96 0.0 0 0 211.70 324.82
  A 30.96 30.96 0.0 0 0 242.66 293.86"
/>
<path stroke="#8f9ba1" vector-effect="non-scaling-stroke" d="
  M 313.59 304.35
  A 20.76 20.76 0.0 0 0 292.83 283.59
  A 20.76 20.76 0.0 0 0 272.07 304.35
  A 20.76 20.76 0.0 0 0 292.83 325.11
  A 20.76 20.76 0.0 0 0 313.59 304.35"
/>
</g>
<path fill="#ffffff" d="
  M 0.00 0.00
  L 589.00 0.00
  L 589.00 589.00
  L 0.00 589.00
  L 0.00 0.00
  Z
  M 179.18 37.41
  Q 121.66 63.30 80.99 111.47
  C 73.12 120.79 65.45 131.93 58.73 142.30
  Q 31.79 183.93 21.65 232.44
  C 19.02 245.02 17.61 257.44 17.27 269.97
  C 17.15 274.26 20.29 278.86 25.01 278.78
  Q 35.11 278.62 44.34 278.78
  C 51.71 278.91 55.42 273.89 55.45 266.97
  Q 55.51 252.28 59.81 235.47
  C 68.81 200.26 85.26 166.71 108.51 139.14
  Q 124.60 120.05 138.30 108.03
  Q 165.08 84.52 201.37 69.58
  C 221.96 61.11 243.84 54.65 266.43 52.99
  C 271.70 52.61 275.88 49.54 275.86 43.84
  Q 275.82 32.60 275.97 21.10
  C 276.02 16.47 271.55 13.59 267.25 13.97
  Q 222.26 18.03 179.18 37.41
  Z
  M 344.98 56.76
  C 372.93 63.10 400.46 74.64 423.93 90.02
  C 440.50 100.87 457.16 114.69 470.94 129.70
  Q 515.27 178.02 529.43 243.08
  Q 532.07 255.18 532.59 268.58
  C 532.75 272.64 534.11 275.61 537.66 277.69
  Q 539.63 278.84 541.97 278.78
  Q 552.09 278.54 562.12 278.62
  C 567.80 278.67 571.35 273.33 571.00 267.97
  Q 568.85 234.92 558.52 204.57
  Q 532.19 127.20 469.46 76.02
  Q 462.55 70.38 453.56 64.01
  C 421.64 41.41 386.08 25.78 347.58 17.83
  Q 336.36 15.52 322.42 14.26
  Q 319.80 14.02 317.37 14.35
  C 314.22 14.78 311.45 17.83 311.47 21.21
  Q 311.54 33.10 311.47 44.47
  C 311.44 49.52 316.89 52.99 321.34 53.30
  Q 333.55 54.16 344.98 56.76
  Z
  M 120.32 213.28
  Q 142.20 167.83 182.41 137.93
  Q 214.94 113.74 254.89 105.21
  Q 260.27 104.07 265.75 103.53
  Q 269.11 103.20 270.96 102.17
  C 273.41 100.81 276.07 97.82 276.05 94.68
  Q 276.00 86.01 276.02 78.23
  C 276.03 73.41 270.85 70.58 266.60 70.97
  Q 255.25 72.01 245.05 74.25
  C 208.36 82.29 173.33 99.44 145.87 124.88
  C 122.01 146.99 103.12 172.47 90.16 201.39
  Q 84.10 214.89 81.38 224.25
  Q 76.80 239.95 75.50 245.93
  Q 73.40 255.57 72.79 268.54
  Q 72.65 271.39 73.47 273.51
  C 74.53 276.25 77.04 278.82 80.16 278.79
  Q 88.60 278.71 96.56 278.77
  C 102.79 278.81 105.27 274.21 105.65 268.46
  Q 106.27 259.14 106.83 256.11
  C 109.50 241.54 113.93 226.56 120.32 213.28
  Z
  M 376.16 120.67
  Q 397.69 131.66 413.38 144.36
  C 451.25 175.02 478.33 220.79 482.04 269.85
  Q 482.43 275.03 486.28 277.64
  Q 488.35 279.05 493.38 278.84
  Q 498.88 278.61 504.60 278.77
  C 510.69 278.94 515.93 275.90 515.43 269.07
  Q 514.15 251.68 509.91 235.99
  C 500.42 200.88 482.67 168.11 457.57 141.19
  C 427.38 108.84 390.63 86.71 348.36 75.48
  C 339.51 73.13 330.00 71.96 320.87 70.99
  C 316.16 70.49 311.29 73.59 311.44 78.62
  Q 311.65 85.58 311.23 93.18
  C 310.94 98.28 314.43 102.43 319.37 103.12
  Q 350.25 107.45 376.16 120.67
  Z
  M 249.91 340.90
  Q 244.11 367.69 239.78 395.63
  Q 238.57 403.40 239.30 408.27
  C 241.36 421.94 249.99 434.46 262.11 441.83
  C 279.91 452.65 303.53 452.93 321.80 444.09
  C 340.33 435.12 352.39 415.88 348.67 394.77
  C 345.80 378.52 341.68 358.95 338.34 340.90
  Q 338.02 339.16 339.25 340.43
  C 357.26 358.97 383.85 365.21 407.49 354.28
  C 429.28 344.21 441.76 322.99 444.29 299.70
  C 447.11 273.68 440.85 247.97 429.52 224.06
  Q 421.02 206.12 407.93 190.94
  Q 392.17 172.65 374.72 161.58
  Q 356.18 149.81 337.49 143.56
  Q 326.34 139.84 317.84 138.45
  Q 285.76 133.23 256.85 141.85
  Q 186.80 162.74 156.29 228.48
  C 146.98 248.54 142.66 270.77 143.15 292.99
  Q 143.91 327.27 169.27 347.72
  Q 178.45 355.12 189.17 357.72
  C 212.39 363.35 231.79 356.49 249.32 340.56
  Q 250.15 339.80 249.91 340.90
  Z
  M 137.27 525.09
  C 174.70 550.97 219.74 566.71 265.71 570.57
  Q 268.46 570.80 270.42 570.26
  C 273.50 569.41 276.05 566.24 276.02 562.88
  Q 275.93 552.84 276.08 541.99
  C 276.15 537.32 271.75 533.70 267.42 533.17
  C 222.98 527.79 180.96 511.41 146.22 483.74
  Q 99.50 446.53 74.10 390.67
  Q 60.33 360.40 55.46 325.75
  C 54.63 319.88 51.81 315.73 45.24 315.83
  Q 36.19 315.97 25.75 315.91
  C 20.43 315.87 16.57 319.54 17.15 325.15
  C 21.46 367.58 35.99 409.89 59.73 445.23
  C 77.00 470.93 96.99 494.70 121.44 513.52
  Q 129.32 519.59 137.27 525.09
  Z
  M 207.05 462.50
  Q 151.75 432.71 123.16 376.91
  Q 113.51 358.08 107.28 331.90
  C 105.85 325.91 106.52 315.86 97.32 315.88
  Q 89.25 315.90 81.37 315.96
  C 77.92 315.98 74.92 317.49 73.51 320.74
  Q 72.54 322.98 73.26 327.44
  Q 74.95 337.73 76.91 345.46
  Q 87.96 388.95 113.87 424.30
  Q 124.43 438.72 135.60 450.26
  Q 161.57 477.09 194.31 493.63
  Q 202.18 497.61 212.65 501.64
  Q 223.91 505.98 231.83 508.32
  Q 246.21 512.58 265.20 515.26
  C 270.49 516.01 276.24 512.86 276.11 507.01
  Q 275.94 499.51 276.05 491.89
  C 276.12 487.00 272.89 483.48 268.19 482.75
  Q 247.21 479.50 225.35 471.00
  Q 216.28 467.48 207.05 462.50
  Z
  M 497.59 383.20
  C 506.14 364.34 512.57 344.72 514.72 325.27
  C 515.44 318.74 510.56 315.48 504.44 315.74
  Q 497.48 316.02 490.82 316.01
  C 484.53 316.00 482.00 320.21 481.19 325.86
  Q 480.47 331.01 478.64 337.89
  Q 464.33 391.82 424.85 429.93
  Q 391.95 461.67 348.79 476.19
  Q 334.51 481.00 321.63 482.43
  C 316.00 483.06 311.40 485.49 311.50 491.64
  Q 311.61 498.34 311.50 504.83
  C 311.41 510.64 314.38 515.44 320.64 515.07
  Q 326.76 514.70 334.35 513.20
  Q 356.21 508.87 375.15 501.40
  C 386.75 496.82 398.44 490.63 409.03 484.27
  Q 424.60 474.91 438.15 462.68
  C 444.16 457.25 450.30 451.77 455.86 445.79
  Q 481.93 417.77 497.59 383.20
  Z
  M 544.81 415.23
  C 556.82 389.88 564.98 363.36 569.48 335.50
  Q 570.24 330.80 570.53 325.99
  C 570.90 319.90 567.38 315.65 561.39 315.73
  Q 550.87 315.89 542.50 315.71
  C 536.68 315.58 532.46 318.88 531.91 324.81
  Q 530.28 342.25 526.02 356.68
  Q 515.34 392.86 495.34 423.78
  Q 468.27 465.61 426.84 493.73
  Q 378.50 526.53 319.17 533.17
  C 313.78 533.78 311.49 538.15 311.51 543.34
  Q 311.56 553.93 311.44 563.11
  Q 311.42 564.81 312.17 566.38
  C 314.36 570.92 319.25 570.85 323.51 570.37
  Q 339.37 568.57 355.65 565.17
  Q 372.95 561.56 397.01 552.27
  C 439.25 535.94 477.65 507.88 506.80 473.21
  Q 512.15 466.86 517.26 460.37
  Q 532.73 440.71 544.81 415.23
  Z"
/>
<path fill="#1f3643" d="
  M 179.18 37.41
  Q 222.26 18.03 267.25 13.97
  C 271.55 13.59 276.02 16.47 275.97 21.10
  Q 275.82 32.60 275.86 43.84
  C 275.88 49.54 271.70 52.61 266.43 52.99
  C 243.84 54.65 221.96 61.11 201.37 69.58
  Q 165.08 84.52 138.30 108.03
  Q 124.60 120.05 108.51 139.14
  C 85.26 166.71 68.81 200.26 59.81 235.47
  Q 55.51 252.28 55.45 266.97
  C 55.42 273.89 51.71 278.91 44.34 278.78
  Q 35.11 278.62 25.01 278.78
  C 20.29 278.86 17.15 274.26 17.27 269.97
  C 17.61 257.44 19.02 245.02 21.65 232.44
  Q 31.79 183.93 58.73 142.30
  C 65.45 131.93 73.12 120.79 80.99 111.47
  Q 121.66 63.30 179.18 37.41
  Z"
/>
<path fill="#1f3643" d="
  M 423.93 90.02
  C 400.46 74.64 372.93 63.10 344.98 56.76
  Q 333.55 54.16 321.34 53.30
  C 316.89 52.99 311.44 49.52 311.47 44.47
  Q 311.54 33.10 311.47 21.21
  C 311.45 17.83 314.22 14.78 317.37 14.35
  Q 319.80 14.02 322.42 14.26
  Q 336.36 15.52 347.58 17.83
  C 386.08 25.78 421.64 41.41 453.56 64.01
  Q 462.55 70.38 469.46 76.02
  Q 532.19 127.20 558.52 204.57
  Q 568.85 234.92 571.00 267.97
  C 571.35 273.33 567.80 278.67 562.12 278.62
  Q 552.09 278.54 541.97 278.78
  Q 539.63 278.84 537.66 277.69
  C 534.11 275.61 532.75 272.64 532.59 268.58
  Q 532.07 255.18 529.43 243.08
  Q 515.27 178.02 470.94 129.70
  C 457.16 114.69 440.50 100.87 423.93 90.02
  Z"
/>
<path fill="#1f3643" d="
  M 120.32 213.28
  C 113.93 226.56 109.50 241.54 106.83 256.11
  Q 106.27 259.14 105.65 268.46
  C 105.27 274.21 102.79 278.81 96.56 278.77
  Q 88.60 278.71 80.16 278.79
  C 77.04 278.82 74.53 276.25 73.47 273.51
  Q 72.65 271.39 72.79 268.54
  Q 73.40 255.57 75.50 245.93
  Q 76.80 239.95 81.38 224.25
  Q 84.10 214.89 90.16 201.39
  C 103.12 172.47 122.01 146.99 145.87 124.88
  C 173.33 99.44 208.36 82.29 245.05 74.25
  Q 255.25 72.01 266.60 70.97
  C 270.85 70.58 276.03 73.41 276.02 78.23
  Q 276.00 86.01 276.05 94.68
  C 276.07 97.82 273.41 100.81 270.96 102.17
  Q 269.11 103.20 265.75 103.53
  Q 260.27 104.07 254.89 105.21
  Q 214.94 113.74 182.41 137.93
  Q 142.20 167.83 120.32 213.28
  Z"
/>
<path fill="#1f3643" d="
  M 376.16 120.67
  Q 350.25 107.45 319.37 103.12
  C 314.43 102.43 310.94 98.28 311.23 93.18
  Q 311.65 85.58 311.44 78.62
  C 311.29 73.59 316.16 70.49 320.87 70.99
  C 330.00 71.96 339.51 73.13 348.36 75.48
  C 390.63 86.71 427.38 108.84 457.57 141.19
  C 482.67 168.11 500.42 200.88 509.91 235.99
  Q 514.15 251.68 515.43 269.07
  C 515.93 275.90 510.69 278.94 504.60 278.77
  Q 498.88 278.61 493.38 278.84
  Q 488.35 279.05 486.28 277.64
  Q 482.43 275.03 482.04 269.85
  C 478.33 220.79 451.25 175.02 413.38 144.36
  Q 397.69 131.66 376.16 120.67
  Z"
/>
<path fill="#1f3643" d="
  M 249.32 340.56
  C 231.79 356.49 212.39 363.35 189.17 357.72
  Q 178.45 355.12 169.27 347.72
  Q 143.91 327.27 143.15 292.99
  C 142.66 270.77 146.98 248.54 156.29 228.48
  Q 186.80 162.74 256.85 141.85
  Q 285.76 133.23 317.84 138.45
  Q 326.34 139.84 337.49 143.56
  Q 356.18 149.81 374.72 161.58
  Q 392.17 172.65 407.93 190.94
  Q 421.02 206.12 429.52 224.06
  C 440.85 247.97 447.11 273.68 444.29 299.70
  C 441.76 322.99 429.28 344.21 407.49 354.28
  C 383.85 365.21 357.26 358.97 339.25 340.43
  Q 338.02 339.16 338.34 340.90
  C 341.68 358.95 345.80 378.52 348.67 394.77
  C 352.39 415.88 340.33 435.12 321.80 444.09
  C 303.53 452.93 279.91 452.65 262.11 441.83
  C 249.99 434.46 241.36 421.94 239.30 408.27
  Q 238.57 403.40 239.78 395.63
  Q 244.11 367.69 249.91 340.90
  Q 250.15 339.80 249.32 340.56
  Z
  M 319.7614 194.4431
  A 24.50 24.16 7.3 0 0 298.5299 167.3658
  A 24.50 24.16 7.3 0 0 271.1586 188.2169
  A 24.50 24.16 7.3 0 0 292.3901 215.2942
  A 24.50 24.16 7.3 0 0 319.7614 194.4431
  Z
  M 383.15 212.26
  A 17.54 17.54 0.0 0 0 365.61 194.72
  A 17.54 17.54 0.0 0 0 348.07 212.26
  A 17.54 17.54 0.0 0 0 365.61 229.80
  A 17.54 17.54 0.0 0 0 383.15 212.26
  Z
  M 246.28 216.08
  A 20.91 20.91 0.0 0 0 225.37 195.17
  A 20.91 20.91 0.0 0 0 204.46 216.08
  A 20.91 20.91 0.0 0 0 225.37 236.99
  A 20.91 20.91 0.0 0 0 246.28 216.08
  Z
  M 333.23 247.08
  A 14.30 14.30 0.0 0 0 318.93 232.78
  A 14.30 14.30 0.0 0 0 304.63 247.08
  A 14.30 14.30 0.0 0 0 318.93 261.38
  A 14.30 14.30 0.0 0 0 333.23 247.08
  Z
  M 268.4831 269.6140
  A 15.18 14.85 83.9 0 0 281.6359 252.9420
  A 15.18 14.85 83.9 0 0 265.2569 239.4260
  A 15.18 14.85 83.9 0 0 252.1041 256.0980
  A 15.18 14.85 83.9 0 0 268.4831 269.6140
  Z
  M 409.15 288.58
  A 34.92 34.92 0.0 0 0 374.23 253.66
  A 34.92 34.92 0.0 0 0 339.31 288.58
  A 34.92 34.92 0.0 0 0 374.23 323.50
  A 34.92 34.92 0.0 0 0 409.15 288.58
  Z
  M 242.66 293.86
  A 30.96 30.96 0.0 0 0 211.70 262.90
  A 30.96 30.96 0.0 0 0 180.74 293.86
  A 30.96 30.96 0.0 0 0 211.70 324.82
  A 30.96 30.96 0.0 0 0 242.66 293.86
  Z
  M 313.59 304.35
  A 20.76 20.76 0.0 0 0 292.83 283.59
  A 20.76 20.76 0.0 0 0 272.07 304.35
  A 20.76 20.76 0.0 0 0 292.83 325.11
  A 20.76 20.76 0.0 0 0 313.59 304.35
  Z"
/>
<ellipse fill="#ffffff" cx="0.00" cy="0.00" transform="translate(295.46,191.33) rotate(7.3)" rx="24.50" ry="24.16"/>
<circle fill="#ffffff" cx="365.61" cy="212.26" r="17.54"/>
<circle fill="#ffffff" cx="225.37" cy="216.08" r="20.91"/>
<circle fill="#ffffff" cx="318.93" cy="247.08" r="14.30"/>
<ellipse fill="#ffffff" cx="0.00" cy="0.00" transform="translate(266.87,254.52) rotate(83.9)" rx="15.18" ry="14.85"/>
<circle fill="#ffffff" cx="374.23" cy="288.58" r="34.92"/>
<circle fill="#ffffff" cx="211.70" cy="293.86" r="30.96"/>
<circle fill="#ffffff" cx="292.83" cy="304.35" r="20.76"/>
<path fill="#1f3643" d="
  M 265.71 570.57
  C 219.74 566.71 174.70 550.97 137.27 525.09
  Q 129.32 519.59 121.44 513.52
  C 96.99 494.70 77.00 470.93 59.73 445.23
  C 35.99 409.89 21.46 367.58 17.15 325.15
  C 16.57 319.54 20.43 315.87 25.75 315.91
  Q 36.19 315.97 45.24 315.83
  C 51.81 315.73 54.63 319.88 55.46 325.75
  Q 60.33 360.40 74.10 390.67
  Q 99.50 446.53 146.22 483.74
  C 180.96 511.41 222.98 527.79 267.42 533.17
  C 271.75 533.70 276.15 537.32 276.08 541.99
  Q 275.93 552.84 276.02 562.88
  C 276.05 566.24 273.50 569.41 270.42 570.26
  Q 268.46 570.80 265.71 570.57
  Z"
/>
<path fill="#1f3643" d="
  M 225.35 471.00
  Q 247.21 479.50 268.19 482.75
  C 272.89 483.48 276.12 487.00 276.05 491.89
  Q 275.94 499.51 276.11 507.01
  C 276.24 512.86 270.49 516.01 265.20 515.26
  Q 246.21 512.58 231.83 508.32
  Q 223.91 505.98 212.65 501.64
  Q 202.18 497.61 194.31 493.63
  Q 161.57 477.09 135.60 450.26
  Q 124.43 438.72 113.87 424.30
  Q 87.96 388.95 76.91 345.46
  Q 74.95 337.73 73.26 327.44
  Q 72.54 322.98 73.51 320.74
  C 74.92 317.49 77.92 315.98 81.37 315.96
  Q 89.25 315.90 97.32 315.88
  C 106.52 315.86 105.85 325.91 107.28 331.90
  Q 113.51 358.08 123.16 376.91
  Q 151.75 432.71 207.05 462.50
  Q 216.28 467.48 225.35 471.00
  Z"
/>
<path fill="#1f3643" d="
  M 497.59 383.20
  Q 481.93 417.77 455.86 445.79
  C 450.30 451.77 444.16 457.25 438.15 462.68
  Q 424.60 474.91 409.03 484.27
  C 398.44 490.63 386.75 496.82 375.15 501.40
  Q 356.21 508.87 334.35 513.20
  Q 326.76 514.70 320.64 515.07
  C 314.38 515.44 311.41 510.64 311.50 504.83
  Q 311.61 498.34 311.50 491.64
  C 311.40 485.49 316.00 483.06 321.63 482.43
  Q 334.51 481.00 348.79 476.19
  Q 391.95 461.67 424.85 429.93
  Q 464.33 391.82 478.64 337.89
  Q 480.47 331.01 481.19 325.86
  C 482.00 320.21 484.53 316.00 490.82 316.01
  Q 497.48 316.02 504.44 315.74
  C 510.56 315.48 515.44 318.74 514.72 325.27
  C 512.57 344.72 506.14 364.34 497.59 383.20
  Z"
/>
<path fill="#1f3643" d="
  M 569.48 335.50
  C 564.98 363.36 556.82 389.88 544.81 415.23
  Q 532.73 440.71 517.26 460.37
  Q 512.15 466.86 506.80 473.21
  C 477.65 507.88 439.25 535.94 397.01 552.27
  Q 372.95 561.56 355.65 565.17
  Q 339.37 568.57 323.51 570.37
  C 319.25 570.85 314.36 570.92 312.17 566.38
  Q 311.42 564.81 311.44 563.11
  Q 311.56 553.93 311.51 543.34
  C 311.49 538.15 313.78 533.78 319.17 533.17
  Q 378.50 526.53 426.84 493.73
  Q 468.27 465.61 495.34 423.78
  Q 515.34 392.86 526.02 356.68
  Q 530.28 342.25 531.91 324.81
  C 532.46 318.88 536.68 315.58 542.50 315.71
  Q 550.87 315.89 561.39 315.73
  C 567.38 315.65 570.90 319.90 570.53 325.99
  Q 570.24 330.80 569.48 335.50
  Z"
/>
</svg>
